Coordinates
version=1
nRows=17
nColumns=40
inDegrees=yes

Units are S.I. units (second, meters, Newtons, ...)
Angles are in degrees.

endheader
time	pelvis_tilt	pelvis_list	pelvis_rotation	pelvis_tx	pelvis_ty	pelvis_tz	hip_flexion_r	hip_adduction_r	hip_rotation_r	knee_angle_r	knee_angle_r_beta	ankle_angle_r	subtalar_angle_r	mtp_angle_r	hip_flexion_l	hip_adduction_l	hip_rotation_l	knee_angle_l	knee_angle_l_beta	ankle_angle_l	subtalar_angle_l	mtp_angle_l	lumbar_extension	lumbar_bending	lumbar_rotation	arm_flex_r	arm_add_r	arm_rot_r	elbow_flex_r	pro_sup_r	wrist_flex_r	wrist_dev_r	arm_flex_l	arm_add_l	arm_rot_l	elbow_flex_l	pro_sup_l	wrist_flex_l	wrist_dev_l
      0.00000000	     -3.41052779	      1.51683749	     -2.41600289	     -0.79614635	      0.96300501	      1.05521998	      2.18963322	     -2.78711400	    -17.08345856	    -14.40833902	     -0.25147296	      7.15509524	      1.82754757	    -14.17677471	     25.34131766	      2.01478199	     16.02299095	    -36.61000330	     -0.63896510	      5.68045828	     15.88905601	     12.15540922	     -2.24302570	     -3.96123314	      3.75994023	      7.25259087	    -14.59753994	     -9.53095678	     26.20004110	     89.95437384	      0.00000000	      0.00000000	     -9.04705507	     13.44575534	      6.83824816	     13.06803515	     89.95437384	      0.00000000	      0.00000000
      0.01000000	     -3.44310460	      1.64294493	     -2.69466390	     -0.78710836	      0.96228636	      1.05652573	      1.45982768	     -2.83375509	    -17.00696846	    -14.05411884	     -0.24529065	      7.48237161	      1.98466914	    -14.18442719	     25.61505216	      1.78528291	     16.30946828	    -33.65684020	     -0.58742268	      5.05057727	     15.50323551	     12.26463670	     -2.23227260	     -4.10770779	      4.40582456	      7.74832775	    -15.01246899	     -9.33868845	     26.75894197	     89.95437384	      0.00000000	      0.00000000	     -9.57646604	     13.55862123	      7.81820252	     12.92749707	     89.95437384	      0.00000000	      0.00000000
      0.02000000	     -3.56633034	      1.66534353	     -2.88547849	     -0.77812022	      0.96125564	      1.05762056	      0.87286942	     -2.79143281	    -17.07748646	    -13.81034712	     -0.24103603	      7.76860299	      2.21255946	    -14.22983725	     25.98506768	      1.65627763	     16.52487108	    -30.72424012	     -0.53623915	      4.49653921	     14.97668725	     12.28277902	     -2.13731035	     -4.11817447	      4.87067390	      8.22191196	    -15.44604742	     -8.97962185	     27.41886491	     89.95437384	      0.00000000	      0.00000000	    -10.16579216	     13.63115914	      9.02529563	     12.84227870	     89.95437384	      0.00000000	      0.00000000
      0.03000000	     -3.97004211	      1.32589625	     -2.97409428	     -0.76910412	      0.95957476	      1.05855793	      0.56379177	     -2.33327472	    -17.29414004	    -13.56644152	     -0.23677907	      8.01777837	      2.32677554	    -14.19563941	     26.79833273	      1.92552660	     16.45345411	    -28.22499881	     -0.49261916	      4.28375174	     14.24539941	     12.25715833	     -1.70899200	     -3.69901238	      5.36118334	      8.54354550	    -15.94029732	     -8.87352939	     28.08627693	     89.95437384	      0.00000000	      0.00000000	    -10.82757234	     13.72950251	      9.41310523	     12.94667513	     89.95437384	      0.00000000	      0.00000000
      0.04000000	     -4.27059733	      1.01359929	     -3.01639500	     -0.76033985	      0.95787606	      1.05935906	      0.14900903	     -1.91204873	    -17.69709811	    -13.32649949	     -0.23259129	      8.39550486	      2.29356846	    -14.23257079	     27.68952754	      2.28987041	     16.94817819	    -26.21073638	     -0.45746365	      4.33326501	     13.96385609	     12.26971590	     -1.42646645	     -3.31263620	      5.69287678	      9.06877282	    -16.33154096	     -8.85249516	     28.52461677	     89.95437384	      0.00000000	      0.00000000	    -11.34873776	     13.81743371	      9.65389540	     12.79480845	     89.95437384	      0.00000000	      0.00000000
      0.05000000	     -3.81500557	      1.30516087	     -3.35596219	     -0.75065663	      0.95759478	      1.06011435	     -1.13037966	     -2.32998203	    -18.01342471	    -13.00452879	     -0.22697185	      8.61320677	      3.55260488	    -14.56652618	     26.94586822	      1.89891362	     17.34432198	    -22.79173421	     -0.39779080	      3.16363015	     11.86632251	     11.71473735	     -2.02202514	     -3.67807982	      6.09114127	      9.59101601	    -16.74260602	     -8.23538452	     29.25421047	     89.95437384	      0.00000000	      0.00000000	    -11.69635670	     13.63372904	     12.85930132	     12.55135975	     89.95437384	      0.00000000	      0.00000000
      0.06000000	     -3.88097758	      1.21611878	     -3.50754223	     -0.74137264	      0.95622444	      1.06058211	     -1.79450290	     -2.25302602	    -18.26974996	    -12.80952329	     -0.22356836	      8.87206117	      3.87509309	    -14.77118915	     27.18302688	      1.99742396	     17.86560555	    -20.31380688	     -0.35454281	      2.73164212	     10.18127634	     11.39293128	     -1.99873588	     -3.54220065	      6.47231215	     10.00401669	    -17.14787487	     -8.12279115	     29.83730510	     89.95437384	      0.00000000	      0.00000000	    -12.12031127	     13.62340760	     13.54990452	     12.35955128	     89.95437384	      0.00000000	      0.00000000
      0.07000000	     -3.85916143	      1.12024687	     -3.69036056	     -0.73194550	      0.95494380	      1.06108484	     -2.55468643	     -2.21664995	    -18.72265931	    -12.63326875	     -0.22049213	      9.07262863	      4.68393423	    -14.98806562	     27.33865271	      2.16201518	     18.55161950	    -18.09940196	     -0.31589416	      2.30811055	      7.87648406	     10.82222013	     -2.07785816	     -3.42726583	      6.84264373	     10.46059599	    -17.46919424	     -8.14573787	     30.32465984	     89.95437384	      0.00000000	      0.00000000	    -12.51298435	     13.59579983	     14.49515773	     12.14859297	     89.95437384	      0.00000000	      0.00000000
      0.08000000	     -4.17523242	      0.92204050	     -3.80320400	     -0.72288945	      0.95309523	      1.06137123	     -2.87553584	     -2.01676187	    -18.87227974	    -12.56827170	     -0.21935772	      9.27732881	      4.92765270	    -15.05498064	     27.90710721	      2.30578220	     18.51365568	    -16.04778439	     -0.28008668	      2.07990263	      6.41479978	     10.67575537	     -1.80084977	     -3.16631492	      7.16910892	     10.83523267	    -17.82626118	     -8.13668525	     30.81272326	     89.95437384	      0.00000000	      0.00000000	    -12.87685739	     13.58354382	     14.69949349	     11.92128579	     89.95437384	      0.00000000	      0.00000000
      0.09000000	     -3.85335113	      1.09019608	     -4.13622318	     -0.71284895	      0.95220395	      1.06179546	     -3.89801664	     -2.40078218	    -19.43555272	    -12.55369036	     -0.21910323	      9.60795978	      5.95616656	    -15.40583493	     27.61918719	      2.29874624	     19.84783787	    -14.07408065	     -0.24563905	      1.35182985	      3.32316825	     10.06049206	     -2.15224559	     -3.36768806	      7.60596878	     11.27041664	    -18.09392508	     -8.02608572	     31.23088747	     89.95437384	      0.00000000	      0.00000000	    -13.15401282	     13.54286023	     15.44548936	     11.59398397	     89.95437384	      0.00000000	      0.00000000
      0.10000000	     -4.01332600	      1.03836334	     -4.33017060	     -0.70324567	      0.95054242	      1.06194205	     -4.35487502	     -2.43678072	    -19.54098780	    -12.58495280	     -0.21964886	      9.81791116	      6.36102161	    -15.56847655	     27.96217188	      2.34345023	     20.00117456	    -12.38885204	     -0.21622626	      0.93834911	      1.53201433	      9.83735923	     -1.99642552	     -3.28447995	      7.94972802	     11.62361000	    -18.30844409	     -8.20862486	     31.60856346	     89.95437384	      0.00000000	      0.00000000	    -13.45706589	     13.49010746	     15.66028142	     11.34212590	     89.95437384	      0.00000000	      0.00000000
      0.11000000	     -4.07612679	      1.03873539	     -4.59347768	     -0.69346917	      0.94903841	      1.06221344	     -4.88091017	     -2.55276436	    -19.52405530	    -12.69766128	     -0.22161600	      9.99408394	      6.67740419	    -15.69379131	     28.15149466	      2.36340575	     20.09148740	    -10.88318798	     -0.18994746	      0.62974269	      0.01000539	      9.72286538	     -1.93049775	     -3.29101842	      8.32495801	     11.97508544	    -18.48522397	     -8.33779071	     31.91820184	     89.95437384	      0.00000000	      0.00000000	    -13.72090625	     13.45486199	     15.76297409	     11.05642634	     89.95437384	      0.00000000	      0.00000000
      0.12000000	     -3.56094183	      1.38830879	     -4.97745589	     -0.68268590	      0.94840966	      1.06235738	     -6.05809965	     -3.25025462	    -20.00936735	    -12.84445270	     -0.22417799	     10.21315247	      7.85868566	    -16.17182063	     27.63314121	      2.18100182	     21.59201447	     -9.66973816	     -0.16876877	     -0.17220399	     -2.54918891	      9.09305169	     -2.42097970	     -3.73223001	      8.77927406	     12.31242323	    -18.54265275	     -8.71893731	     32.21252648	     89.95437384	      0.00000000	      0.00000000	    -13.97078810	     13.43157594	     15.92248703	     10.84565908	     89.95437384	      0.00000000	      0.00000000
      0.13000000	     -3.59975149	      1.37655355	     -5.22357005	     -0.67250678	      0.94690144	      1.06254398	     -6.61128720	     -3.36384258	    -19.89414183	    -12.98542676	     -0.22663845	     10.25789407	      8.01660556	    -16.21681192	     27.78190936	      2.24646432	     21.39566177	     -8.77926082	     -0.15322701	     -0.20551803	     -3.16922413	      8.91882656	     -2.35526565	     -3.75260822	      9.03017506	     12.62535714	    -18.58941235	     -8.90422050	     32.47991782	     89.95437384	      0.00000000	      0.00000000	    -14.21887389	     13.37153512	     15.88151596	     10.55191402	     89.95437384	      0.00000000	      0.00000000
      0.14000000	     -3.23980680	      1.60352625	     -5.59587469	     -0.66172022	      0.94608340	      1.06275484	     -7.60507009	     -3.82372942	    -19.79482050	    -13.13344828	     -0.22922191	     10.42110851	      8.24249495	    -16.33627558	     27.37362965	      2.09502531	     21.49834027	     -8.10058277	     -0.14138184	     -0.36914779	     -3.48103389	      8.58724025	     -2.66870494	     -4.08231095	      9.42616390	     12.82952592	    -18.63190387	     -9.08991831	     32.82035136	     89.95437384	      0.00000000	      0.00000000	    -14.39697986	     13.33743198	     15.65977427	     10.30785457	     89.95437384	      0.00000000	      0.00000000
      0.15000000	     -3.04979590	      1.71805541	     -5.84718677	     -0.65093474	      0.94498560	      1.06283248	     -8.41486443	     -4.13561835	    -19.73576293	    -13.31041030	     -0.23231048	     10.62882155	      8.30335734	    -16.32898745	     27.29046705	      2.07840512	     21.25491215	     -8.07216454	     -0.14088585	     -0.25870282	     -3.34569083	      8.27892885	     -2.79478586	     -4.28961057	      9.65613511	     13.06637380	    -18.59452139	     -9.39199394	     33.00766292	     89.95437384	      0.00000000	      0.00000000	    -14.55624899	     13.29005923	     15.39186118	     10.01577449	     89.95437384	      0.00000000	      0.00000000
      0.16000000	     -2.62385728	      2.02987965	     -6.08240807	     -0.63957626	      0.94423824	      1.06254878	     -9.52823621	     -4.76829922	    -20.02984644	    -13.42699892	     -0.23434534	     10.46592953	      8.83400529	    -16.42522672	     26.79873734	      1.72585894	     20.64154943	     -8.06511567	     -0.14076282	     -0.26571878	     -2.21225081	      7.45171538	     -3.12203445	     -4.73048399	      9.88807306	     13.10605696	    -18.50631517	     -9.78273382	     33.35338233	     89.95437384	      0.00000000	      0.00000000	    -14.78306712	     13.28913852	     14.56991954	      9.96538425	     89.95437384	      0.00000000	      0.00000000
